<svg version="1.1" id="Layer_1" xmlns="http://www.w3.org/2000/svg" xmlns:xlink="http://www.w3.org/1999/xlink" x="0px" y="0px" viewBox="0 0 1200 1200" enable-background="new 0 0 1200 1200" xml:space="preserve">
<path d="M788.774,680.581c0.043-0.021,0.089-0.052,0.13-0.073c0.075,0.036,0.171,0.088,0.25,0.128&#10;&#9;C789.03,680.613,788.9,680.606,788.774,680.581z M1025.425,634.92c11.583-7.271,26.675-6.261,39.09-11.56&#10;&#9;c18.097-7.724,28.904-23.549,23.172-43.319c-1.366-4.711-5.145-9.776-5.529-14.676c-0.65-8.301,5.778-15.605,9.153-22.577&#10;&#9;c4.726-9.764,6.8-20.909,6.191-31.714c-0.661-11.744-4.374-22.77-10.447-32.373c-27.026,24.161-65.647,31.856-98.268,38.333&#10;&#9;c-4.092,0.813-8.106,1.609-12.007,2.423c-105.79,22.069-216.466,28.927-320.76,34.058c-48.652,2.394-98.04,3.608-146.794,3.608&#10;&#9;c-61.105,0-123.006-1.906-183.983-5.665l-5.351-0.327c-58.734-3.582-131.83-8.04-181.103-55.126c-3.082-2.946-5.962-6-8.668-9.14&#10;&#9;c-0.022,0.075-0.056,0.143-0.078,0.219c-2.88,9.647-2.217,18.587,0.344,28.129c3.71,13.825,0.368,22.686-3.937,35.507&#10;&#9;c-14.577,43.409,19.635,77.72,61.029,79.67c9.631,0.454,16.265,0.1,24.118,6.086c3.254,2.479,5.489,6.24,8.841,8.725&#10;&#9;c7.656,5.678,15.119,7.267,24.452,7.928c8.911,0.631,16.374,0.384,24.948,3.443c5.01,1.788,9.486,4.717,14.724,5.858&#10;&#9;c3.968,0.864,7.956,1.148,11.96,1.148c7.622,0,15.309-1.027,23.068-1.027c3.83,0,7.675,0.25,11.54,0.997&#10;&#9;c27.387,5.295,53.454,12.134,81.552,13.017c1.235,0.039,2.47,0.057,3.705,0.057c18.761,0,37.537-4.245,56.147-5.672&#10;&#9;c6.484,0.952,12.934,2.582,19.407,4.926c12.714,4.603,24.438,9.714,37.989,9.714c0.864,0,1.736-0.021,2.616-0.064&#10;&#9;c11.839-0.579,23.132-5.096,34.646-7.472c14.809-3.055,29.923-4.091,45.022-4.091c3.75,0,7.495,0.064,11.238,0.176&#10;&#9;c31.179,0.939,62.072,5.783,93.212,7.243c3.294,0.154,6.624,0.258,9.96,0.258c9.37,0,18.803-0.815,27.732-3.605&#10;&#9;c11.242-3.513,18.939-13.182,29.548-16.883c1.613-0.562,3.186-0.808,4.729-0.808c8.674,0,16.414,7.768,24.974,10.817&#10;&#9;c7.391,2.633,15.024,3.639,22.721,3.639c4.832,0,9.69-0.397,14.529-1.036c13.301-1.757,26.294-5.361,39.631-6.821&#10;&#9;c4.026-0.441,8.035-0.621,12.035-0.621c10.08,0,20.102,1.147,30.206,2.168c7.954,0.804,16.061,1.497,24.08,1.497&#10;&#9;c15.688,0,31.054-2.651,44.37-12.31C1010.153,651.169,1016.057,640.802,1025.425,634.92z M956.811,689.79&#10;&#9;c-9.023,0-17.863-0.768-26.072-1.598l-3.176-0.324c-8.752-0.897-17.018-1.744-25.038-1.744c-3.552,0-6.784,0.165-9.879,0.504&#10;&#9;c-1.157,0.127-2.354,0.356-3.523,0.519c4.673,3.627,9.151,7.519,13.531,11.361c16.744,14.684,33.543,31.39,55.177,38.571&#10;&#9;c5.602,1.86,12.417,3.224,18.937,3.224c12.029,0,23.061-4.641,23.675-19.378c0.596-14.304-7.623-31.81,2.738-41.303&#10;&#9;C990.183,686.486,975.19,689.79,956.811,689.79z M497.591,742.156c0.326-0.022,0.659-0.033,1-0.033&#10;&#9;c6.205,0,14.555,3.547,19.49,5.601c5.891,2.451,11.553,5.409,17.523,7.685c7.278,2.774,15.085,4.605,22.894,4.605&#10;&#9;c3.667,0,7.336-0.404,10.95-1.303c9.083-2.261,16.884-7.338,21.643-15.543c3.979-6.859,4.663-14.236,11.438-18.938&#10;&#9;c5.831-4.048,14.219-4.719,21.06-5.862c18.749-3.131,34.69-7.257,45.689-20.981c-15.937-1.554-31.093-2.992-46.42-3.454&#10;&#9;c-3.747-0.113-7.227-0.168-10.642-0.168c-15.589,0-29.007,1.205-41.02,3.683c-3.418,0.705-7.017,1.689-10.826,2.73&#10;&#9;c-7.967,2.177-16.997,4.645-26.856,5.127c-1.206,0.059-2.398,0.087-3.582,0.087c-15.329,0-28.391-4.848-39.916-9.125&#10;&#9;c-1.592-0.591-3.195-1.186-4.815-1.773c-4.516-1.635-8.928-2.823-13.423-3.612c-6.081,0.543-12.284,1.389-18.808,2.279&#10;&#9;c-11.763,1.604-23.927,3.262-36.579,3.262c-1.444,0-2.886-0.021-4.328-0.067c-23.589-0.742-45.604-5.323-66.895-9.752&#10;&#9;c-5.892-1.226-11.811-2.458-17.795-3.615c-2.248-0.435-4.72-0.637-7.78-0.637c-3.236,0-6.675,0.23-10.316,0.473&#10;&#9;c-4.079,0.273-8.297,0.554-12.751,0.554c-5.937,0-11.227-0.524-16.174-1.602c-5.331-1.161-9.656-3.177-13.131-4.797&#10;&#9;c-1.509-0.703-2.934-1.368-4.034-1.76c-4.156-1.483-8.368-1.706-14.198-2.015c-1.786-0.095-3.61-0.192-5.497-0.326&#10;&#9;c-10.373-0.735-22.625-2.71-34.843-11.773c-3.367-2.495-5.795-5.233-7.568-7.232c-0.564-0.636-1.336-1.506-1.486-1.652&#10;&#9;c-1.872-1.427-2.557-1.627-10.14-1.931c-0.942-0.038-1.91-0.077-2.906-0.124c-28.954-1.364-55.235-15.33-70.302-37.358&#10;&#9;c-3.063-4.479-5.561-9.185-7.548-14.052c-7.965,1.469-15.501,3.672-21.522,8.255c-6.686,5.089-11.361,11.93-12.48,20.391&#10;&#9;c-0.803,6.072,1.742,12.896,0.049,18.818c-2.738,9.579-13.244,15.205-21.096,19.948c-6.832,4.127-3.203,13.024,3.757,13.871&#10;&#9;c5.704,0.694,11.389,1.036,17.034,1.036c19.754,0,39.051-4.193,57.162-12.217c-0.119,13.383-0.519,27.548,2.016,39.97&#10;&#9;c1.269,6.214,3.406,12.11,9.069,15.738c3.501,2.242,7.435,3.147,11.424,3.147c4.545,0,9.162-1.174,13.292-2.88&#10;&#9;c9.502-3.924,15.311-14.798,24.303-18.317c2.796-1.095,5.225-1.588,7.339-1.588c14.989,0,14.328,24.724,18.722,35.155&#10;&#9;c2.812,6.673,6.818,13.405,12.885,17.612c4.658,3.231,8.927,4.596,12.843,4.596c10.901,0,19.075-10.574,25.361-20.913&#10;&#9;c6.689-11.003,13.991-18.801,27.046-18.801c1.068,0,2.174,0.052,3.321,0.159c16.035,1.492,19.799,12.107,27.749,23.91&#10;&#9;c5.588,8.295,12.405,11.954,19.589,11.954c6.984,0,14.314-3.456,21.201-9.469c10.053-8.776,22.336-24.677,37.293-24.677&#10;&#9;c1.779,0,3.596,0.225,5.451,0.714c10.166,2.677,17.469,14.422,23.495,22.041c9.905,12.521,20.046,24.284,36.804,24.284&#10;&#9;c0.645,0,1.298-0.017,1.963-0.053c5.654-0.302,10.991-5.733,8.943-11.74C478.001,748.815,489.847,742.682,497.591,742.156z&#10;&#9; M1056.094,775.682c24.775-12.048,53.06-27.825,62.7-55.338c6.923-19.755,4.114-41.49-5.102-60.45&#10;&#9;c-5.432,0.796-11.309,1.43-17.697,1.903c-4.705,12.469-14.314,22.979-26.799,28.242c-6.938,2.925-14.519,4.347-23.175,4.347&#10;&#9;c-4.537,0-8.719-0.361-12.764-0.711c-3.338-0.288-6.489-0.561-9.283-0.561c-2.56,0-4.517,0.224-6.158,0.706&#10;&#9;c-0.055,0.016-0.108,0.032-0.16,0.048c0.036,2.518,0.648,6.627,1.085,9.56c0.824,5.528,1.757,11.792,1.485,18.32&#10;&#9;c-0.97,23.3-18.029,38.355-43.459,38.355c-8.011,0-16.952-1.503-25.175-4.233c-22.819-7.574-40.36-23.215-55.836-37.015&#10;&#9;c-2.06-1.837-4.11-3.665-6.16-5.463l-0.862-0.757c-8.629-7.573-16.78-14.725-25.479-18.495c-1.626-0.704-3.207-1.211-4.799-1.543&#10;&#9;c-1.668,0.268-3.303,0.571-5.004,0.796c-4.654,0.615-8.939,0.915-13.107,1.061c-2.294,0.624-4.696,1.313-7.352,2.111&#10;&#9;c-11.204,3.368-21.544,5.005-31.611,5.005c-12.737,0-24.255-2.779-34.925-7.028c-1.949,0.893-4.008,1.707-6.195,2.391&#10;&#9;c-9.84,3.074-20.528,4.506-33.637,4.506c-3.314,0-6.875-0.091-10.887-0.279c-8.092-0.379-16.158-0.987-24.147-1.68&#10;&#9;c-15.261,27.887-41.301,34.501-64.74,38.417c-1.18,0.197-2.401,0.382-3.646,0.569c-2.78,0.419-7.304,1.101-9.048,1.86&#10;&#9;c-0.429,0.801-1.083,2.384-1.58,3.59c-1.063,2.577-2.385,5.783-4.358,9.184c-7.153,12.333-19.224,21.149-33.989,24.824&#10;&#9;c-5.038,1.254-10.331,1.89-15.733,1.89c-9.596,0-19.672-1.987-29.948-5.905c-4.047-1.543-7.734-3.24-11.299-4.881&#10;&#9;c-2.369-1.09-4.606-2.12-6.78-3.024l-0.396-0.165c-1.676-0.698-5.234-2.18-8.114-3.108c-0.074,5.374-1.719,10.67-4.857,15.312&#10;&#9;c-5.238,7.75-13.941,12.674-23.279,13.172c-1.022,0.054-2.027,0.081-3.018,0.081c-27.18,0-42.926-19.907-52.335-31.803&#10;&#9;c-1.049-1.326-2.136-2.765-3.262-4.262c-2.614-3.473-7.481-9.937-9.744-10.914c-0.205-0.054-0.327-0.061-0.409-0.061&#10;&#9;c-3.738,0-12.234,8.298-16.797,12.755c-2.427,2.371-4.936,4.822-7.473,7.037c-10.756,9.39-22.591,14.354-34.224,14.354&#10;&#9;c-14.234,0-27.024-7.349-36.012-20.693c-1.403-2.082-2.689-4.128-3.928-6.106c-5.518-8.803-5.869-8.836-9.231-9.149&#10;&#9;c-0.528-0.049-1.029-0.074-1.488-0.074c-2.304,0-4.48,0-10.126,9.286c-5.059,8.322-18.498,30.429-42.281,30.429&#10;&#9;c-8.235,0-16.353-2.734-24.127-8.126c-8.378-5.81-14.87-14.378-19.85-26.197c-1.972-4.684-3.046-9.86-4.083-14.866&#10;&#9;c-0.248-1.197-0.551-2.663-0.887-4.152c-0.342,0.33-0.671,0.648-0.973,0.94c-4.607,4.466-10.341,10.025-18.614,13.441&#10;&#9;c-7.036,2.906-14.051,4.38-20.852,4.38c-8.168,0-15.605-2.111-22.105-6.275c-13.785-8.83-16.799-23.598-17.789-28.452&#10;&#9;c-1.108-5.426-1.743-10.924-2.098-16.434c-0.72,0.175-1.451,0.296-2.173,0.462c-1.159,2.196-2.262,4.472-3.235,6.942&#10;&#9;c-9.479,24.074-3.944,51.083,9.792,72.365c30.364,47.044,88.251,70.173,141.204,79.126c33.801,5.715,68.99,9.074,104.241,9.074&#10;&#9;c78.508,0,157.375-16.648,222.263-60.994c21.762-14.872,41.769-32.583,56.1-54.755c26.906,35.357,75.459,52.656,118.781,58.671&#10;&#9;c30.303,4.207,61.651,6.315,93.056,6.315c37.291,0,74.663-2.971,110.483-8.929C994.966,799.255,1026.567,790.042,1056.094,775.682z&#10;&#9; M756.369,826.861c-28.953-4.021-78.475-15.422-114.471-47.594c-12.415,14.272-27.794,27.62-46.512,40.413&#10;&#9;c-38.969,26.631-84.134,45.078-134.958,55.213c14.075,4.029,28.17,8.039,42.245,12.218c27.617,8.199,55.081,16.981,81.942,27.42&#10;&#9;C611.55,925,637.842,941.742,666.2,947.964c5.67,1.244,11.271,1.82,16.793,1.82c44.685,0,84.441-37.659,117.835-63.464&#10;&#9;c22.077-17.061,44.078-34.458,64.855-53.091c-4.504,0.084-9.014,0.135-13.533,0.135&#10;&#9;C819.675,833.364,787.451,831.176,756.369,826.861z M1087.378,359.575c10.811,25.697,16.559,55.06,3.928,81.23&#10;&#9;c-21.021,43.563-76.434,50.478-118.568,59.267c-103.472,21.586-212.275,28.478-317.689,33.665&#10;&#9;c-48.573,2.39-97.187,3.584-145.821,3.584c-60.954,0-121.929-1.877-182.765-5.627c-59.208-3.65-128.595-6.624-173.992-50.006&#10;&#9;c-44.016-42.063-37.725-100.799-7.683-149.103c64.576-103.831,195.922-162.394,310.106-193.005&#10;&#9;c61.47-16.479,126.313-25.75,190.98-25.75c65.623,0,131.068,9.548,192.604,30.799&#10;&#9;C942.763,180.641,1043.563,255.423,1087.378,359.575z M243.281,348.263c-0.449-4.09-3.195-7.882-7.766-7.766&#10;&#9;c-7.839,0.199-12.23,7.558-17.744,12.275c-2.398,2.051-4.859,4.07-7.339,6.021c-3.098,2.437-5.595,5.64-8.589,8.01&#10;&#9;c-5.125,4.06,0.447,12.382,6.201,10.653c4.001-1.202,7.416-1.407,11.27-3.467c3.605-1.927,6.918-4.246,10.105-6.797&#10;&#9;C234.967,362.753,244.155,356.23,243.281,348.263z M331.281,422.954c-7.604-7.306-16.631-14.03-25.829-19.197&#10;&#9;c-4.931-2.77-12.023,3.131-8.297,8.297c6.144,8.522,13.515,16.708,21.597,23.428C327.372,442.649,339.646,430.991,331.281,422.954z&#10;&#9; M392.63,316.966c-8.88-6.792-18.198-11.495-28.512-15.64c-6.915-2.779-11.335,7.109-6.864,11.79&#10;&#9;c7.702,8.064,15.928,14.917,25.562,20.637c4.514,2.681,10.665,1.02,13.3-3.487C399.044,325.261,396.812,320.166,392.63,316.966z&#10;&#9; M426.62,202.917c-12.563-4.433-26.883-0.353-35.97,9.032c-5.747,5.935,1.471,13.812,8.324,10.788&#10;&#9;c8.221-3.629,16.577-3.726,25.325-2.664C434.613,221.325,435.31,205.983,426.62,202.917z M529.655,447.736&#10;&#9;c-2.07-4.734-8.257-7.584-12.052-10.95c-3.708-3.287-7.235-6.917-10.117-10.955c-5.86-8.209-17.315-1.284-13.358,7.808&#10;&#9;c2.616,6.012,5.994,11.369,10.286,16.336c4.386,5.075,10.453,11.221,17.56,11.145C529.292,461.043,532.288,453.757,529.655,447.736z&#10;&#9; M565.467,317.489c-7.214-6.512-14.437-12.79-23.595-16.215c-6.302-2.357-10.533,5.41-8.037,10.453&#10;&#9;c3.967,8.016,10.699,14.172,17.281,20.113c2.557,2.309,6.415,3.863,9.874,2.61c3.597-1.303,6.098-3.226,7.088-7.088&#10;&#9;C568.944,323.977,568.149,319.91,565.467,317.489z M640.517,167.013c-10.38,0.5-22.189,1.7-31.54,6.525&#10;&#9;c-5.45,2.812-4.083,11.559,1.7,13.006c10.279,2.573,22.09,0.872,32.345-1.029C653.45,183.584,651.074,166.505,640.517,167.013z&#10;&#9; M698.47,354.173c-5.506,0.87-9.801,5.494-13.84,9.034c-3.996,3.505-7.978,7-11.826,10.669c-5.681,5.417,1.541,14.122,8.174,10.593&#10;&#9;c4.726-2.514,9.33-5.209,13.948-7.918c4.709-2.761,10.134-5.425,12.715-10.448C711.097,359.379,705.433,353.072,698.47,354.173z&#10;&#9; M727.013,243.141c-1.029-6.083-11.262-6.087-12.292,0c-1.302,7.696-3.372,15.046-2.752,22.989&#10;&#9;c0.502,6.42,1.351,13.923,5.617,18.897c1.546,1.804,5.02,1.799,6.563,0c4.264-4.974,5.114-12.491,5.616-18.897&#10;&#9;C730.386,258.205,728.313,250.825,727.013,243.141z M849.165,391.567c-6.465,6.7-10.565,16.459-14.17,24.932&#10;&#9;c-1.309,3.078-1.129,6.354,1.706,8.541c2.415,1.864,6.568,2.018,8.694-0.518c6.331-7.554,13.521-15.974,16.767-25.389&#10;&#9;C864.732,391.679,854.384,386.158,849.165,391.567z M892.721,227.491c-8.103-11.412-21.479-16.641-35.283-15.251&#10;&#9;c-7.542,0.759-10.507,12.306-1.925,14.221c8.748,1.952,15.144,7.164,21.631,13.049C885.03,246.666,899.575,237.141,892.721,227.491z&#10;&#9; M983.93,306.439c-0.978-7.09-13.344-7.095-14.321,0c-1.614,11.72-2.846,23.732-2.129,35.575c0.723,11.944,17.855,11.965,18.579,0&#10;&#9;C986.777,330.169,985.544,318.162,983.93,306.439z M1023.976,673.314c7.308,0,14.692,1.271,22.046,1.271&#10;&#9;c5.189,0,10.362-0.633,15.482-2.791c11.428-4.818,18.523-17.465,17.829-28.957c29.097-0.942,75.759-5.015,70.215-30.716&#10;&#9;c-3.003-13.92-20.831-25.936-31.503-34.001c-4.369-3.302-8.859-6.357-13.448-9.22c0.76,1.712,1.508,3.552,2.11,5.627&#10;&#9;c8.079,27.866-5.753,54.809-34.418,67.044c-7.345,3.135-14.703,4.529-21.196,5.759c-6.034,1.143-11.733,2.222-15.138,4.36&#10;&#9;c-2.702,1.696-5.719,5.019-8.913,8.536c-3.936,4.334-8.397,9.247-14.232,13.48c-1.003,0.727-2.05,1.361-3.077,2.037&#10;&#9;c0.813-0.316,1.585-0.65,2.505-0.92C1016.115,673.684,1020.036,673.314,1023.976,673.314z M228.263,869.26&#10;&#9;c-41.57-10.55-96.751-33.368-128.396-82.397c-4.102-6.357-7.464-12.991-10.149-19.761c-12.672,12.781-23.37,27.276-30.703,43.122&#10;&#9;c-6.843,14.79-13.249,34.551,0.232,47.727c14.37,14.044,42.347,15.847,61.095,18.057c11.059,1.304,22.157,1.92,33.24,1.92&#10;&#9;C178.675,877.927,203.713,874.726,228.263,869.26z M1072.123,856.486c-2.666-0.277-5.249-0.547-7.716-0.765&#10;&#9;c-18.042-1.592-35.986-4.173-53.34-6.669l-7.864-1.128c-23.924-3.41-55.394-7.325-86.653-7.325c-10.74,0-20.882,0.433-30.813,1.318&#10;&#9;c-23.185,21.42-47.682,40.659-72.801,60.07c-4.528,3.499-9.173,7.22-14.091,11.16c-31.39,25.145-70.456,56.438-115.852,56.438&#10;&#9;c-7.064,0-14.141-0.767-21.036-2.279c-20.27-4.448-38.74-13.267-56.6-21.797c-9.671-4.619-18.806-8.981-27.914-12.521&#10;&#9;c-22.792-8.858-47.59-17.153-80.405-26.894c-11.056-3.282-22.364-6.51-33.299-9.631c-16.522-4.716-33.25-9.547-49.984-14.766&#10;&#9;c-16.75,1.605-34.015,2.43-51.805,2.43c-28.837,0-58.733-2.21-89.094-6.515c-41.522,13.299-81.605,20.117-119.273,20.117&#10;&#9;c-0.163,0-0.326-0.007-0.489-0.007c9.499,36.834,35.031,70.396,64.647,93.656c52.025,40.86,118.558,64.605,182.693,78.008&#10;&#9;c70.032,14.635,141.983,17.769,213.339,16.545c74.213-1.273,148.947-5.174,222.093-18.4c64.36-11.638,133.484-29.012,184.604-72.084&#10;&#9;c39.352-33.157,64.322-87.706,52.851-138.838C1072.928,856.567,1072.509,856.526,1072.123,856.486z M1066.147,835.997&#10;&#9;c9.607,0.847,20.933,2.445,31.988,2.445c10.088,0,19.951-1.33,28.081-5.777c26.416-14.448,21.114-51.877,3.224-70.731&#10;&#9;c-2.592-2.732-5.364-5.17-8.27-7.379c-14.738,16.898-35.406,28.717-56.417,38.935c-28.78,13.997-61.154,24.128-96.224,30.192&#10;&#9;c12.471,1.268,24.951,2.855,37.466,4.639C1026.011,831.174,1046,834.219,1066.147,835.997z" style="fill: rgb(89, 206, 143);"/>
</svg>