<svg version="1.1" id="Layer_1" xmlns="http://www.w3.org/2000/svg" xmlns:xlink="http://www.w3.org/1999/xlink" x="0px" y="0px" viewBox="0 0 1200 1200" enable-background="new 0 0 1200 1200" xml:space="preserve">
<g>
	<path fill="#FFFFFF" d="M247.848,730.648h33.612c-10.366-22.439-19.967-45.614-28.637-69.564&#10;&#9;&#9;c-45.111-124.599-60.112-252.054-48.853-369.333c0.003-0.03,0.022-0.055,0.049-0.067L597.397,126.06&#10;&#9;&#9;c0.019-0.008,0.042-0.008,0.063,0l393.362,165.624c0.027,0.012,0.047,0.037,0.049,0.067c11.262,117.28-3.74,244.735-48.845,369.333&#10;&#9;&#9;c-8.669,23.947-18.261,47.127-28.624,69.564h33.599c9.672-21.635,18.675-43.775,26.875-66.427&#10;&#9;&#9;c47.566-131.396,66.646-270.726,55.248-403.219L597.426,79.238L165.714,261.003c-11.393,132.483,7.699,271.856,55.259,403.219&#10;&#9;&#9;C229.173,686.874,238.175,709.013,247.848,730.648z" style="fill: rgb(255, 30, 0);"/>
	<path fill="#FFFFFF" d="M597.429,1120.521c82.899-42.48,158.765-105.607,223.189-184.01h-43.268&#10;&#9;&#9;c-7.599,8.245-15.297,16.316-23.156,24.074c-0.037,0.036-0.098,0.029-0.126-0.015l-15.012-24.059h-28.829l25.799,41.348&#10;&#9;&#9;c-10.461,9.594-21.11,18.784-31.947,27.513l-40.952-68.861h-40.163v124.122c-8.451,4.775-16.962,9.319-25.535,13.584&#10;&#9;&#9;c-6.124-3.046-12.207-6.272-18.269-9.579l0.099-128.127h-21.352l-0.093,115.908c-20.564-12.412-40.685-26.364-60.267-41.704&#10;&#9;&#9;l43.776-74.204h-24.778l-35.775,60.641c-10.58-8.878-20.966-18.21-31.168-27.922l20.282-32.719h-25.108l-10.731,17.311&#10;&#9;&#9;c-0.028,0.044-0.09,0.052-0.127,0.014c-5.558-5.638-11.029-11.44-16.454-17.325H374.23&#10;&#9;&#9;C438.654,1014.913,514.522,1078.039,597.429,1120.521z M644.303,952.711l40.273,67.718c-13.204,9.81-26.638,18.978-40.273,27.485&#10;&#9;&#9;V952.711z" style="fill: rgb(255, 30, 0);"/>
	<path fill="#FFFFFF" d="M429.35,543.408c-31.945,7.518-72.599-14.502-97.415-55.313c-3.745-6.159-6.926-12.443-9.587-18.758&#10;&#9;&#9;c-0.601-1.426-1.109-2.88-1.663-4.325c-0.558-1.457-1.165-2.911-1.664-4.369c-0.422-1.231-0.747-2.458-1.125-3.689&#10;&#9;&#9;c-11.827-38.16-4.204-75.294,21.773-91.09c12.817-7.794,28.207-9.185,43.92-5.29c3.018,0.673,6.045,1.466,9.07,2.523&#10;&#9;&#9;c-0.292-0.008-0.577,0.006-0.868,0.001c22.184,8.058,44.254,26.299,59.965,52.136c25.045,41.187,25.676,87.897,3.693,112.63&#10;&#9;&#9;l-0.143,0.087l102.797,164.751l-0.031,37.946h21.346l0.052-67.159c0.005-6.199-5.038-11.203-11.237-11.12&#10;&#9;&#9;c-5.617,0.076-12.707,0.145-19.751,0.143v0.002c-0.039,0-0.078,0-0.117,0c-6.145-0.001-11.131-5.001-11.111-11.145&#10;&#9;&#9;c1.081-327.895,47.863-407.18,72.016-426.267c0.013-0.01,0.024-0.02,0.036-0.03c6.007-4.736,10.607-5.762,12.747-5.952l0.032-0.002&#10;&#9;&#9;c0.408-0.035,0.722-0.043,0.939-0.039c0.028,0,0.031,0,0.054,0.001c0.176,0.005,0.273,0.013,0.293,0.015l0.015,0.001v0.001&#10;&#9;&#9;l-0.002,10.554l-0.058,416.791h-0.362v94.207h39.805l93.139-157.879c1.612-2.732,4.712-4.266,7.847-3.784&#10;&#9;&#9;c0.588,0.09,1.179,0.168,1.771,0.232c2.455,0.267,4.96,0.312,7.454,0.135c2.57-0.184,4.925-0.554,7.162-1.123&#10;&#9;&#9;c10.663-2.689,19.641-9.367,25.279-18.805l89.175-149.348c1.872-3.13,3.133-6.538,3.744-10.124c0.61-3.575,0.55-7.176-0.187-10.729&#10;&#9;&#9;c-0.884-4.239-2.791-8.294-5.542-11.768c-2.127-2.665-4.633-4.868-7.548-6.605l-1.422-0.824l-0.615-0.252&#10;&#9;&#9;c-1.084-0.53-2.155-0.968-3.206-1.316c-1.342-0.452-2.543-0.732-3.496-0.913l-0.547-0.138l-1.792-0.228&#10;&#9;&#9;c-0.475-0.052-0.948-0.09-1.422-0.117c-2.279-3.733-5.442-6.926-9.343-9.254l-1.59-0.956l-0.728-0.29&#10;&#9;&#9;c-1.082-0.525-2.156-0.962-3.229-1.315c-1.349-0.451-2.556-0.727-3.435-0.893l-0.607-0.152l-1.74-0.217&#10;&#9;&#9;c-0.505-0.055-1.012-0.095-1.516-0.123c-2.287-3.745-5.481-6.998-9.501-9.397l-1.454-0.844l-0.634-0.255&#10;&#9;&#9;c-1.067-0.519-2.129-0.954-3.214-1.315c-1.306-0.436-2.465-0.705-3.424-0.885l-0.848-0.21l-1.504-0.164&#10;&#9;&#9;c-0.493-0.053-0.985-0.094-1.481-0.12c-2.262-3.721-5.418-6.943-9.379-9.307c-2.52-1.511-5.33-2.61-8.351-3.268&#10;&#9;&#9;c-0.961-0.208-1.929-0.364-2.895-0.469c-2.801-0.304-5.629-0.184-8.446,0.367c-8.018,1.58-15.039,6.542-19.27,13.619&#10;&#9;&#9;l-89.185,149.361c-8.497,14.234-7.655,32.07,2.131,45.424c2.01,2.658,2.178,6.28,0.422,9.112l-48.524,78.281&#10;&#9;&#9;c-0.043,0.069-0.149,0.039-0.149-0.042l0.05-423.847c0-0.041-0.031-0.076-0.072-0.08l-19.099-1.959l-1.745-0.127h-0.886&#10;&#9;&#9;c-0.616,0-1.427,0.02-2.422,0.098l-1.124,0.094l-0.236,0.042c-5.572,0.669-13.805,3.061-23.038,10.338l-0.507,0.405&#10;&#9;&#9;c-46.958,37.806-73.97,168.995-78.875,381.173c-0.002,0.08-0.106,0.11-0.148,0.043l-32.026-51.329&#10;&#9;&#9;c-0.015-0.024-0.016-0.053-0.003-0.078c18.191-34.16,14.177-83.139-11.884-125.997c-17.785-29.244-43.995-51.893-71.984-62.223&#10;&#9;&#9;l0.054-0.297c-3.546-1.239-7.218-2.271-11.537-3.243c-7.448-1.823-14.884-2.747-22.11-2.747c-14.669,0-28.164,3.684-40.116,10.951&#10;&#9;&#9;c-34.918,21.234-47.949,69.15-32.464,119.105l0.285,0.955c0.345,1.179,0.697,2.355,1.102,3.536c0.46,1.355,0.988,2.714,1.522,4.069&#10;&#9;&#9;l0.909,2.375c0.511,1.367,1.029,2.73,1.599,4.074c3.171,7.492,6.916,14.802,11.125,21.722&#10;&#9;&#9;c25.269,41.552,66.548,68.426,105.222,68.519c0.027,0,0.052,0.014,0.067,0.038l95.917,161.287h28.456L429.35,543.408z&#10;&#9;&#9; M644.303,657.783h0.359l0.001-3.235l76.374-123.209c2.291-3.694,1.112-8.548-2.617-10.781l-2.454-1.469&#10;&#9;&#9;c-2.35-1.403-4.305-3.216-5.825-5.292c-4.563-6.229-5.238-14.833-1.03-21.881l89.187-149.361c1.184-1.983,3.074-3.228,5.073-3.622&#10;&#9;&#9;c0.896-0.176,1.8-0.173,2.687,0.02c0.656,0.142,1.301,0.354,1.901,0.713c3.22,1.923,4.137,6.332,2.05,9.852l-52.728,88.305&#10;&#9;&#9;c-0.335,0.57-0.583,1.157-0.774,1.75c-0.045,0.126-0.078,0.256-0.115,0.383c-0.166,0.585-0.281,1.177-0.316,1.754&#10;&#9;&#9;c-0.138,2.327,0.763,4.474,2.603,5.573c2.869,1.713,6.901,0.24,9.004-3.283l20.108-33.674l0.004,0.003l32.592-54.583&#10;&#9;&#9;c1.08-1.809,2.75-3.017,4.554-3.515c0.001-0.002,0.006-0.001,0.009-0.002c0.85-0.234,1.728-0.314,2.592-0.214&#10;&#9;&#9;c0.084,0.009,0.165,0.041,0.25,0.054c0.348,0.055,0.693,0.115,1.03,0.227c0.362,0.121,0.711,0.292,1.057,0.483&#10;&#9;&#9;c0.056,0.032,0.12,0.047,0.176,0.08c3.224,1.926,4.139,6.34,2.046,9.862c-0.001,0.005-0.01,0.009-0.01,0.009l-52.704,88.263&#10;&#9;&#9;c-0.426,0.716-0.718,1.461-0.917,2.208c-0.017,0.058-0.038,0.116-0.053,0.173c-0.186,0.763-0.269,1.527-0.24,2.263&#10;&#9;&#9;c0.077,2.033,0.957,3.858,2.598,4.837c2.872,1.716,6.906,0.244,9.01-3.279l52.699-88.257c1.592-2.666,4.453-4.048,7.153-3.732&#10;&#9;&#9;c0.077,0.009,0.15,0.037,0.228,0.049c0.354,0.054,0.708,0.117,1.052,0.232c0.381,0.126,0.751,0.303,1.109,0.507&#10;&#9;&#9;c0.04,0.022,0.084,0.033,0.125,0.057c2.421,1.446,3.541,4.295,3.063,7.117c-0.161,0.94-0.498,1.877-1.024,2.759l-52.699,88.257&#10;&#9;&#9;c-0.427,0.715-0.719,1.46-0.919,2.207c-0.017,0.061-0.039,0.12-0.054,0.181c-0.187,0.76-0.269,1.522-0.241,2.257&#10;&#9;&#9;c0.076,2.033,0.951,3.857,2.594,4.838c2.873,1.716,6.911,0.245,9.014-3.277l52.699-88.257c1.592-2.666,4.452-4.049,7.149-3.734&#10;&#9;&#9;c0.069,0.008,0.132,0.033,0.202,0.044c0.362,0.054,0.724,0.119,1.078,0.237c0.365,0.122,0.716,0.293,1.061,0.485&#10;&#9;&#9;c0.055,0.031,0.116,0.045,0.17,0.078c0.67,0.4,1.214,0.927,1.681,1.513c0.653,0.823,1.122,1.781,1.339,2.826&#10;&#9;&#9;c0.186,0.894,0.203,1.838,0.042,2.777c-0.159,0.941-0.495,1.879-1.023,2.76l-89.186,149.361c-2.805,4.698-7.252,7.812-12.17,9.052&#10;&#9;&#9;c-1.133,0.287-2.298,0.447-3.468,0.53c-2.635,0.186-5.321-0.126-7.902-1.029c-0.136-0.048-0.263-0.136-0.398-0.186l-0.003-0.001v0&#10;&#9;&#9;c-1.099-0.412-2.191-0.891-3.234-1.514l-2.6-1.553c-3.705-2.212-8.504-0.989-10.696,2.728l-102.32,173.438V657.783z" style="fill: rgb(255, 30, 0);"/>
	<path fill="#221B3F" d="M644.303,952.711v95.203c13.635-8.507,27.069-17.675,40.273-27.485L644.303,952.711z" style="fill: rgb(255, 255, 255);"/>
	<path fill="#221B3F" d="M757.32,543.782l2.6,1.553c1.044,0.623,2.135,1.103,3.234,1.514v0l0.003,0.001&#10;&#9;&#9;c0.135,0.05,0.262,0.138,0.398,0.186c2.582,0.903,5.268,1.215,7.902,1.029c1.17-0.083,2.335-0.243,3.468-0.53&#10;&#9;&#9;c4.918-1.24,9.365-4.355,12.17-9.052l89.186-149.361c0.527-0.881,0.864-1.819,1.023-2.76c0.161-0.94,0.143-1.883-0.042-2.777&#10;&#9;&#9;c-0.217-1.045-0.687-2.003-1.339-2.826c-0.466-0.586-1.01-1.113-1.681-1.513c-0.055-0.033-0.115-0.047-0.17-0.078&#10;&#9;&#9;c-0.345-0.192-0.696-0.364-1.061-0.485c-0.354-0.118-0.716-0.184-1.078-0.237c-0.07-0.011-0.133-0.036-0.202-0.044&#10;&#9;&#9;c-2.697-0.315-5.557,1.069-7.149,3.734l-52.699,88.257c-2.104,3.522-6.141,4.992-9.014,3.277c-1.644-0.981-2.518-2.805-2.594-4.838&#10;&#9;&#9;c-0.028-0.735,0.054-1.497,0.241-2.257c0.015-0.061,0.037-0.12,0.054-0.181c0.2-0.747,0.491-1.492,0.919-2.207l52.699-88.257&#10;&#9;&#9;c0.526-0.882,0.864-1.819,1.024-2.759c0.477-2.822-0.642-5.672-3.063-7.117c-0.04-0.024-0.085-0.035-0.125-0.057&#10;&#9;&#9;c-0.358-0.204-0.728-0.38-1.109-0.507c-0.344-0.115-0.698-0.177-1.052-0.232c-0.078-0.013-0.151-0.041-0.228-0.049&#10;&#9;&#9;c-2.699-0.316-5.561,1.066-7.153,3.732l-52.699,88.257c-2.104,3.522-6.137,4.995-9.01,3.279c-1.641-0.98-2.52-2.804-2.598-4.837&#10;&#9;&#9;c-0.029-0.736,0.054-1.5,0.24-2.263c0.015-0.057,0.036-0.115,0.053-0.173c0.199-0.747,0.491-1.492,0.917-2.208l52.704-88.263&#10;&#9;&#9;c0,0,0.009-0.005,0.01-0.009c2.093-3.522,1.178-7.937-2.046-9.862c-0.056-0.033-0.12-0.048-0.176-0.08&#10;&#9;&#9;c-0.346-0.191-0.695-0.362-1.057-0.483c-0.337-0.112-0.682-0.172-1.03-0.227c-0.085-0.014-0.166-0.045-0.25-0.054&#10;&#9;&#9;c-0.864-0.1-1.742-0.02-2.592,0.214c-0.003,0.001-0.008,0-0.009,0.002c-1.804,0.498-3.474,1.706-4.554,3.515l-32.592,54.583&#10;&#9;&#9;l-0.004-0.003l-20.108,33.674c-2.103,3.522-6.135,4.996-9.004,3.283c-1.839-1.098-2.74-3.245-2.603-5.573&#10;&#9;&#9;c0.035-0.577,0.15-1.168,0.316-1.754c0.037-0.127,0.07-0.257,0.115-0.383c0.191-0.593,0.439-1.18,0.774-1.75l52.728-88.305&#10;&#9;&#9;c2.087-3.52,1.17-7.929-2.05-9.852c-0.6-0.359-1.246-0.57-1.901-0.713c-0.887-0.193-1.792-0.195-2.687-0.02&#10;&#9;&#9;c-1.999,0.394-3.889,1.639-5.073,3.622l-89.187,149.361c-4.208,7.047-3.534,15.652,1.03,21.881c1.52,2.076,3.475,3.889,5.825,5.292&#10;&#9;&#9;l2.454,1.469c3.729,2.233,4.908,7.086,2.617,10.781l-76.374,123.209l-0.001,3.235h-0.359v62.166l102.32-173.438&#10;&#9;&#9;C748.816,542.794,753.614,541.57,757.32,543.782z" style="fill: rgb(255, 255, 255);"/>
	<path fill="#FFFFFF" d="M1055.896,907.836l-40.674-69.291c-2.973-5.052-2.889-11.298,0.231-16.283l39.541-62.939H145.008&#10;&#9;&#9;l39.527,62.919c3.134,5.005,3.218,11.251,0.234,16.316l-40.663,69.277H1055.896z M985.321,826.28l-13.058,12.704l3.062,17.96&#10;&#9;&#9;l-16.117-8.494l-16.134,8.462l3.097-17.953l-13.033-12.73l18.032-2.602l8.061-16.329v0.038l0.019-0.038l8.046,16.345&#10;&#9;&#9;L985.321,826.28z M255.557,856.943l-16.117-8.494l-16.135,8.462l3.098-17.953l-13.033-12.73l18.032-2.602l8.06-16.329v0.038&#10;&#9;&#9;l0.019-0.038l8.046,16.345l18.027,2.638l-13.059,12.704L255.557,856.943z M349.039,865.881c-2.633,2.324-5.695,4.156-9.183,5.489&#10;&#9;&#9;c-3.488,1.333-7.217,2.001-11.184,2.001h-22.061v-75.623l20.007,0.103c3.148,0,6.124,0.548,8.929,1.642&#10;&#9;&#9;c2.803,1.097,5.266,2.583,7.387,4.465c2.118,1.882,3.777,4.069,4.977,6.566c1.194,2.497,1.795,5.18,1.795,8.052&#10;&#9;&#9;c0,3.424-0.857,6.569-2.566,9.441c3.215,2.394,5.748,5.283,7.593,8.67c1.848,3.387,2.77,7.064,2.77,11.031&#10;&#9;&#9;c0,3.557-0.752,6.892-2.257,10.004C353.743,860.838,351.672,863.557,349.039,865.881z M426.354,815.398h-30.988v11.39h25.14v17.341&#10;&#9;&#9;h-25.14v11.902h30.988v17.341h-48.329v-75.214l48.329-0.1V815.398z M483.691,872.702c-3.336,1.5-6.994,2.208-10.648,2.16&#10;&#9;&#9;c-4.894-0.064-9.78-1.485-13.874-4.176c-7.15-4.7-11.689-13.095-11.818-21.651c5.788,0.003,11.576,0.006,17.364,0.01&#10;&#9;&#9;c0.189,3.36,2.322,6.595,5.428,7.889c3.107,1.294,7.037,0.447,9.176-2.152c2.138-2.599,2.146-6.778-0.135-9.253&#10;&#9;&#9;c-1.781-1.931-4.486-2.632-7.01-3.36c-5.518-1.59-11.035-3.816-15.16-7.811c-11.667-11.298-7.028-31.003,7.965-36.572&#10;&#9;&#9;c6.817-2.532,14.824-1.591,20.867,2.453c6.044,4.044,9.968,11.087,10.228,18.354c-5.794-0.002-11.588-0.005-17.383-0.007&#10;&#9;&#9;c0.182-1.977-1.544-3.685-3.417-4.344c-1.603-0.564-3.44-0.573-4.959,0.19c-1.519,0.763-2.648,2.354-2.653,4.054&#10;&#9;&#9;c-0.006,1.793,1.19,3.416,2.679,4.415s3.252,1.489,4.974,1.99c4.57,1.327,9.168,2.869,13.038,5.639&#10;&#9;&#9;c6.959,4.979,10.848,13.896,9.873,22.396C497.249,861.427,491.495,869.193,483.691,872.702z M564.362,815.089h-14.468v58.282&#10;&#9;&#9;h-17.341v-58.282h-14.365v-17.341h46.174V815.089z M666.764,870.549c-4.584,1.815-9.336,2.719-14.262,2.719&#10;&#9;&#9;c-4.857,0-9.594-0.905-14.212-2.719c-4.615-1.809-8.771-4.565-12.467-8.261c-3.557-3.624-6.277-7.71-8.155-12.258&#10;&#9;&#9;c-1.882-4.548-2.822-9.355-2.822-14.418c0-5.13,0.941-9.97,2.822-14.518c1.879-4.548,4.598-8.601,8.155-12.158&#10;&#9;&#9;c3.696-3.696,7.866-6.466,12.52-8.311c4.651-1.848,9.389-2.772,14.212-2.772c4.821,0,9.542,0.924,14.159,2.772&#10;&#9;&#9;c4.618,1.845,8.773,4.615,12.467,8.311l-12.211,12.208c-1.985-1.982-4.242-3.471-6.772-4.465c-2.533-0.991-5.096-1.486-7.696-1.486&#10;&#9;&#9;c-2.6,0-5.147,0.495-7.643,1.486c-2.5,0.994-4.737,2.483-6.722,4.465c-1.915,1.987-3.385,4.209-4.412,6.669&#10;&#9;&#9;c-1.027,2.463-1.539,5.066-1.539,7.799c0,2.739,0.512,5.319,1.539,7.749c1.027,2.427,2.497,4.632,4.412,6.616&#10;&#9;&#9;c1.985,1.985,4.222,3.471,6.722,4.462c2.497,0.994,5.044,1.489,7.643,1.489c2.6,0,5.163-0.495,7.696-1.489&#10;&#9;&#9;c2.53-0.991,4.787-2.477,6.772-4.462l12.211,12.311C675.488,865.984,671.346,868.74,666.764,870.549z M754.392,873.372h-17.341&#10;&#9;&#9;v-28.424h-21.753v28.424h-17.341v-75.314h17.341v29.549h21.753v-29.549h17.341V873.372z M777.375,798.158l48.329-0.1v17.341&#10;&#9;&#9;h-30.988v11.39h25.137v17.341h-25.137v11.902h30.988v17.341h-48.329V798.158z M867.361,844.129v29.243H850.02v-75.314h45.456&#10;&#9;&#9;v17.341h-28.115v11.39h22.267v17.341H867.361z" style="fill: rgb(255, 30, 0);"/>
	<path fill="#FFFFFF" d="M331.042,839.677c-1.307-0.22-5.922-1.091-6.959-0.136c-0.994,0.916,0.386,16.503-0.132,16.482&#10;&#9;&#9;c1.549,0.063,3.145,0.092,4.72-0.005c3.177-0.196,6.263-0.908,8.673-2.902c1.468-1.214,2.607-2.93,2.772-4.828&#10;&#9;&#9;c0.201-2.315-1.083-4.575-2.882-6.046C335.458,840.79,333.278,840.053,331.042,839.677z" style="fill: rgb(255, 30, 0);"/>
	<path fill="#FFFFFF" d="M332.366,818.527c0-0.693-0.515-1.442-1.539-2.238c-1.027-0.802-2.43-1.2-4.209-1.2h-2.667v6.978h2.77&#10;&#9;&#9;c1.709-0.07,3.078-0.484,4.106-1.247C331.851,820.055,332.366,819.29,332.366,818.527z" style="fill: rgb(255, 30, 0);"/>
	<path fill="#221B3F" d="M1092.1,912.86l-48.156-82.039l47.819-76.116c3.042-4.838,3.215-10.947,0.451-15.949&#10;&#9;&#9;c-2.761-5.002-8.03-8.108-13.745-8.108H978.353c8.007-18.539,15.525-37.428,22.489-56.665&#10;&#9;&#9;c49.467-136.65,69.001-281.742,56.487-419.594c-0.738-8.097-5.859-15.092-13.366-18.255L605.952,51.711&#10;&#9;&#9;c-5.417-2.28-11.624-2.284-17.046-0.001L152.417,235.486c-8.478,3.573-14.251,11.466-15.058,20.599&#10;&#9;&#9;c-12.2,137.332,7.387,281.839,56.648,417.899c6.963,19.237,14.482,38.127,22.489,56.665h-94.964&#10;&#9;&#9;c-5.714,0-10.983,3.106-13.745,8.108c-2.764,5.002-2.591,11.111,0.448,15.943l47.822,76.121l-48.145,82.022&#10;&#9;&#9;c-2.85,4.84-2.889,10.878-0.1,15.757c2.789,4.879,8.013,7.911,13.633,7.911h216.163c70.701,90.878,155.952,163.663,249.903,211.14&#10;&#9;&#9;c3.104,1.567,6.508,2.349,9.915,2.349c3.41,0,6.819-0.785,9.931-2.352c93.939-47.475,179.185-120.259,249.884-211.137h221.315&#10;&#9;&#9;c5.611,0,10.833-3.023,13.625-7.894C1094.97,923.746,1094.942,917.714,1092.1,912.86z M417.464,936.511&#10;&#9;&#9;c5.425,5.885,10.896,11.687,16.454,17.325c0.037,0.037,0.099,0.03,0.127-0.014l10.731-17.311h25.108L449.6,969.23&#10;&#9;&#9;c10.202,9.712,20.588,19.044,31.168,27.922l35.775-60.641h24.778l-43.776,74.204c19.581,15.34,39.703,29.292,60.267,41.704&#10;&#9;&#9;l0.093-115.908h21.352l-0.099,128.127c6.062,3.307,12.145,6.533,18.269,9.579c8.574-4.265,17.085-8.809,25.535-13.584V936.511&#10;&#9;&#9;h40.163l40.952,68.861c10.837-8.729,21.486-17.919,31.947-27.513l-25.799-41.348h28.829l15.012,24.059&#10;&#9;&#9;c0.028,0.044,0.089,0.051,0.126,0.015c7.859-7.757,15.557-15.829,23.156-24.074h43.268&#10;&#9;&#9;c-64.424,78.403-140.29,141.529-223.189,184.01c-82.907-42.482-158.775-105.608-223.199-184.01H417.464z M144.106,907.836&#10;&#9;&#9;l40.663-69.277c2.984-5.066,2.9-11.312-0.234-16.316l-39.527-62.919h909.987l-39.541,62.939c-3.12,4.985-3.204,11.231-0.231,16.283&#10;&#9;&#9;l40.674,69.291H144.106z M165.714,261.003L597.426,79.238l431.699,181.765c11.398,132.493-7.682,271.823-55.248,403.219&#10;&#9;&#9;c-8.2,22.652-17.203,44.791-26.875,66.427h-33.599c10.363-22.437,19.955-45.617,28.624-69.564&#10;&#9;&#9;c45.105-124.599,60.107-252.054,48.845-369.333c-0.003-0.03-0.022-0.055-0.049-0.067L597.46,126.06&#10;&#9;&#9;c-0.02-0.008-0.043-0.008-0.063,0L204.018,291.684c-0.028,0.012-0.047,0.037-0.049,0.067&#10;&#9;&#9;c-11.259,117.28,3.742,244.735,48.853,369.333c8.67,23.95,18.272,47.125,28.637,69.564h-33.612&#10;&#9;&#9;c-9.672-21.635-18.675-43.775-26.875-66.427C173.412,532.859,154.321,393.486,165.714,261.003z M416.328,569.362&#10;&#9;&#9;c-0.015-0.024-0.04-0.038-0.067-0.038c-38.674-0.094-79.953-26.968-105.222-68.519c-4.209-6.92-7.954-14.23-11.125-21.722&#10;&#9;&#9;c-0.571-1.343-1.088-2.707-1.599-4.074l-0.909-2.375c-0.534-1.355-1.062-2.714-1.522-4.069c-0.405-1.181-0.757-2.357-1.102-3.536&#10;&#9;&#9;l-0.285-0.955c-15.485-49.955-2.455-97.871,32.464-119.105c11.952-7.267,25.447-10.951,40.116-10.951&#10;&#9;&#9;c7.226,0,14.662,0.924,22.11,2.747c4.319,0.972,7.991,2.004,11.537,3.243l-0.054,0.297c27.989,10.33,54.199,32.979,71.984,62.223&#10;&#9;&#9;c26.061,42.858,30.075,91.837,11.884,125.997c-0.013,0.025-0.012,0.054,0.003,0.078l32.026,51.329&#10;&#9;&#9;c0.042,0.068,0.146,0.037,0.148-0.043c4.905-212.178,31.917-343.367,78.875-381.173l0.507-0.405&#10;&#9;&#9;c9.233-7.277,17.466-9.669,23.038-10.338l0.236-0.042l1.124-0.094c0.996-0.078,1.806-0.098,2.422-0.098h0.886l1.745,0.127&#10;&#9;&#9;l19.099,1.959c0.041,0.004,0.072,0.039,0.072,0.08l-0.05,423.847c0,0.081,0.106,0.111,0.149,0.042l48.524-78.281&#10;&#9;&#9;c1.756-2.833,1.588-6.454-0.422-9.112c-9.786-13.354-10.628-31.19-2.131-45.424l89.185-149.361&#10;&#9;&#9;c4.232-7.077,11.252-12.039,19.27-13.619c2.818-0.551,5.646-0.672,8.446-0.367c0.966,0.105,1.934,0.261,2.895,0.469&#10;&#9;&#9;c3.021,0.658,5.831,1.756,8.351,3.268c3.961,2.364,7.117,5.586,9.379,9.307c0.495,0.026,0.988,0.067,1.481,0.12l1.504,0.164&#10;&#9;&#9;l0.848,0.21c0.96,0.18,2.118,0.448,3.424,0.885c1.085,0.361,2.146,0.795,3.214,1.315l0.634,0.255l1.454,0.844&#10;&#9;&#9;c4.02,2.399,7.215,5.652,9.501,9.397c0.504,0.027,1.011,0.068,1.516,0.123l1.74,0.217l0.607,0.152&#10;&#9;&#9;c0.879,0.167,2.086,0.442,3.435,0.893c1.073,0.352,2.147,0.789,3.229,1.315l0.728,0.29l1.59,0.956&#10;&#9;&#9;c3.9,2.328,7.064,5.521,9.343,9.254c0.475,0.027,0.948,0.065,1.422,0.117l1.792,0.228l0.547,0.138&#10;&#9;&#9;c0.953,0.181,2.154,0.461,3.496,0.913c1.051,0.349,2.122,0.787,3.206,1.316l0.615,0.252l1.422,0.824&#10;&#9;&#9;c2.915,1.736,5.421,3.939,7.548,6.605c2.751,3.474,4.658,7.529,5.542,11.768c0.738,3.554,0.797,7.154,0.187,10.729&#10;&#9;&#9;c-0.611,3.586-1.873,6.994-3.744,10.124l-89.175,149.348c-5.638,9.438-14.616,16.116-25.279,18.805&#10;&#9;&#9;c-2.236,0.569-4.591,0.939-7.162,1.123c-2.494,0.177-4.999,0.132-7.454-0.135c-0.591-0.064-1.183-0.142-1.771-0.232&#10;&#9;&#9;c-3.136-0.482-6.235,1.052-7.847,3.784l-93.139,157.879h-39.805v-94.207h0.362l0.058-416.791l0.002-10.554v-0.001l-0.015-0.001&#10;&#9;&#9;c-0.02-0.002-0.117-0.01-0.293-0.015c-0.023-0.001-0.026-0.001-0.054-0.001c-0.217-0.004-0.532,0.004-0.939,0.039l-0.032,0.002&#10;&#9;&#9;c-2.14,0.19-6.74,1.215-12.747,5.952c-0.012,0.01-0.024,0.02-0.036,0.03c-24.153,19.087-70.935,98.372-72.016,426.267&#10;&#9;&#9;c-0.02,6.144,4.966,11.145,11.111,11.145c0.039,0,0.078,0,0.117,0v-0.002c7.044,0.001,14.134-0.068,19.751-0.143&#10;&#9;&#9;c6.199-0.083,11.242,4.92,11.237,11.12l-0.052,67.159h-21.346l0.031-37.946L455.305,527.951l0.143-0.087&#10;&#9;&#9;c21.984-24.734,21.352-71.443-3.693-112.63c-15.711-25.837-37.781-44.078-59.965-52.136c0.292,0.005,0.576-0.009,0.868-0.001&#10;&#9;&#9;c-3.025-1.056-6.052-1.85-9.07-2.523c-15.714-3.895-31.103-2.504-43.92,5.29c-25.977,15.796-33.6,52.93-21.773,91.09&#10;&#9;&#9;c0.378,1.231,0.704,2.458,1.125,3.689c0.499,1.457,1.106,2.912,1.664,4.369c0.554,1.445,1.062,2.899,1.663,4.325&#10;&#9;&#9;c2.661,6.315,5.842,12.599,9.587,18.758c24.816,40.811,65.47,62.831,97.415,55.313l111.351,187.241h-28.456L416.328,569.362z" style="fill: rgb(255, 255, 255);"/>
	<path fill="#221B3F" d="M357.503,847.72c0-3.966-0.921-7.643-2.77-11.031c-1.845-3.387-4.378-6.277-7.593-8.67&#10;&#9;&#9;c1.709-2.872,2.566-6.018,2.566-9.441c0-2.872-0.601-5.556-1.795-8.052c-1.2-2.497-2.859-4.685-4.977-6.566&#10;&#9;&#9;c-2.121-1.882-4.584-3.368-7.387-4.465c-2.806-1.094-5.781-1.642-8.929-1.642l-20.007-0.103v75.623h22.061&#10;&#9;&#9;c3.966,0,7.696-0.668,11.184-2.001c3.488-1.333,6.549-3.165,9.183-5.489s4.704-5.044,6.207-8.158&#10;&#9;&#9;C356.751,854.611,357.503,851.277,357.503,847.72z M337.345,853.116c-2.41,1.993-5.496,2.705-8.673,2.902&#10;&#9;&#9;c-1.575,0.097-3.171,0.068-4.72,0.005c0.518,0.021-0.863-15.566,0.132-16.482c1.036-0.955,5.652-0.084,6.959,0.136&#10;&#9;&#9;c2.236,0.376,4.417,1.113,6.193,2.565c1.799,1.47,3.083,3.731,2.882,6.046C339.951,850.186,338.813,851.901,337.345,853.116z&#10;&#9;&#9; M326.721,822.067h-2.77v-6.978h2.667c1.779,0,3.181,0.398,4.209,1.2c1.024,0.796,1.539,1.545,1.539,2.238&#10;&#9;&#9;c0,0.763-0.515,1.528-1.539,2.294C329.799,821.583,328.43,821.998,326.721,822.067z" style="fill: rgb(255, 255, 255);"/>
	<polygon fill="#221B3F" points="378.025,873.372 426.354,873.372 426.354,856.031 395.366,856.031 395.366,844.129 &#10;&#9;&#9;420.506,844.129 420.506,826.788 395.366,826.788 395.366,815.398 426.354,815.398 426.354,798.058 378.025,798.158 &#9;" style="fill: rgb(255, 255, 255);"/>
	<path fill="#221B3F" d="M498.225,852.927c0.975-8.501-2.914-17.417-9.873-22.396c-3.87-2.769-8.468-4.312-13.038-5.639&#10;&#9;&#9;c-1.722-0.5-3.485-0.99-4.974-1.99s-2.685-2.622-2.679-4.415c0.005-1.7,1.134-3.291,2.653-4.054&#10;&#9;&#9;c1.519-0.763,3.356-0.755,4.959-0.19c1.873,0.659,3.599,2.367,3.417,4.344c5.794,0.002,11.588,0.005,17.383,0.007&#10;&#9;&#9;c-0.26-7.267-4.184-14.31-10.228-18.354c-6.044-4.044-14.051-4.985-20.867-2.453c-14.994,5.569-19.633,25.274-7.965,36.572&#10;&#9;&#9;c4.125,3.995,9.642,6.221,15.16,7.811c2.524,0.727,5.229,1.429,7.01,3.36c2.281,2.474,2.273,6.654,0.135,9.253&#10;&#9;&#9;c-2.139,2.599-6.069,3.446-9.176,2.152c-3.106-1.294-5.24-4.529-5.428-7.889c-5.787-0.003-11.576-0.006-17.364-0.01&#10;&#9;&#9;c0.129,8.555,4.669,16.951,11.818,21.651c4.094,2.691,8.98,4.111,13.874,4.176c3.654,0.048,7.312-0.66,10.648-2.16&#10;&#9;&#9;C491.495,869.193,497.249,861.427,498.225,852.927z" style="fill: rgb(255, 255, 255);"/>
	<polygon fill="#221B3F" points="518.188,797.749 518.188,815.089 532.553,815.089 532.553,873.372 549.894,873.372 &#10;&#9;&#9;549.894,815.089 564.362,815.089 564.362,797.749 &#9;" style="fill: rgb(255, 255, 255);"/>
	<path fill="#221B3F" d="M666.97,849.977c-1.985,1.985-4.242,3.471-6.772,4.462c-2.533,0.994-5.096,1.489-7.696,1.489&#10;&#9;&#9;c-2.6,0-5.147-0.495-7.643-1.489c-2.5-0.991-4.737-2.477-6.722-4.462c-1.915-1.985-3.385-4.189-4.412-6.616&#10;&#9;&#9;c-1.027-2.43-1.539-5.01-1.539-7.749c0-2.733,0.512-5.336,1.539-7.799c1.027-2.461,2.497-4.682,4.412-6.669&#10;&#9;&#9;c1.985-1.982,4.222-3.471,6.722-4.465c2.497-0.991,5.044-1.486,7.643-1.486c2.6,0,5.163,0.495,7.696,1.486&#10;&#9;&#9;c2.53,0.994,4.787,2.483,6.772,4.465l12.211-12.208c-3.694-3.696-7.849-6.466-12.467-8.311c-4.618-1.848-9.338-2.772-14.159-2.772&#10;&#9;&#9;c-4.824,0-9.561,0.924-14.212,2.772c-4.654,1.845-8.823,4.615-12.52,8.311c-3.557,3.557-6.277,7.61-8.155,12.158&#10;&#9;&#9;c-1.882,4.548-2.822,9.389-2.822,14.518c0,5.063,0.941,9.87,2.822,14.418c1.879,4.548,4.598,8.634,8.155,12.258&#10;&#9;&#9;c3.696,3.696,7.852,6.452,12.467,8.261c4.618,1.815,9.355,2.719,14.212,2.719c4.927,0,9.678-0.905,14.262-2.719&#10;&#9;&#9;c4.582-1.809,8.723-4.565,12.417-8.261L666.97,849.977z" style="fill: rgb(255, 255, 255);"/>
	<polygon fill="#221B3F" points="737.051,827.606 715.299,827.606 715.299,798.058 697.958,798.058 697.958,873.372 &#10;&#9;&#9;715.299,873.372 715.299,844.947 737.051,844.947 737.051,873.372 754.392,873.372 754.392,798.058 737.051,798.058 &#9;" style="fill: rgb(255, 255, 255);"/>
	<polygon fill="#221B3F" points="825.704,856.031 794.716,856.031 794.716,844.129 819.853,844.129 819.853,826.788 &#10;&#9;&#9;794.716,826.788 794.716,815.398 825.704,815.398 825.704,798.058 777.375,798.158 777.375,873.372 825.704,873.372 &#9;" style="fill: rgb(255, 255, 255);"/>
	<polygon fill="#221B3F" points="889.628,826.788 867.361,826.788 867.361,815.398 895.476,815.398 895.476,798.058 850.02,798.058 &#10;&#9;&#9;850.02,873.372 867.361,873.372 867.361,844.129 889.628,844.129 &#9;" style="fill: rgb(255, 255, 255);"/>
	<polygon fill="#221B3F" points="265.554,826.28 247.527,823.642 239.481,807.297 239.462,807.335 239.462,807.297 231.401,823.626 &#10;&#9;&#9;213.369,826.228 226.403,838.958 223.305,856.911 239.44,848.449 255.557,856.943 252.495,838.984 &#9;" style="fill: rgb(255, 255, 255);"/>
	<polygon fill="#221B3F" points="959.229,807.335 959.229,807.297 951.168,823.626 933.136,826.228 946.17,838.958 943.073,856.911 &#10;&#9;&#9;959.207,848.449 975.324,856.943 972.262,838.984 985.321,826.28 967.294,823.642 959.248,807.297 &#9;" style="fill: rgb(255, 255, 255);"/>
</g>
</svg>